<svg width="16" height="16" viewBox="0 0 16 16" fill="none" xmlns="http://www.w3.org/2000/svg">
<path d="M6.00016 12.6667H8.00016V8.62773L5.3335 6.30268L2.66683 8.62773V12.6667H4.66683V10H6.00016V12.6667ZM14.0002 14H2.00016C1.63198 14 1.3335 13.7015 1.3335 13.3333V8.32453C1.3335 8.13187 1.41684 7.9486 1.56204 7.822L4.00016 5.69623V2.66667C4.00016 2.29848 4.29864 2 4.66683 2H14.0002C14.3684 2 14.6668 2.29848 14.6668 2.66667V13.3333C14.6668 13.7015 14.3684 14 14.0002 14ZM10.6668 7.33333V8.66667H12.0002V7.33333H10.6668ZM10.6668 10V11.3333H12.0002V10H10.6668ZM10.6668 4.66667V6H12.0002V4.66667H10.6668ZM8.00016 4.66667V6H9.3335V4.66667H8.00016Z" fill="#B0B0AF"/>
</svg>
