<svg xmlns="http://www.w3.org/2000/svg" width="280.0" height="102.0" viewBox="0.0 0.0 280.0 102.0" fill="none">
<path d="M97.709 74.5948H98.4534V70.8342H99.8958C101.443 70.8342 102.398 69.9584 102.398 68.6394C102.398 67.3204 101.443 66.4214 99.8958 66.4214H97.709V74.5948ZM99.9084 67.0756C100.979 67.0756 101.618 67.6602 101.618 68.6162C101.618 69.5722 100.979 70.18 99.9084 70.18H98.4534V67.0735H99.9084V67.0756ZM103.965 74.5948H104.65V65.8368H103.965V74.5948ZM108.5 74.7573C109.314 74.7573 110.107 74.407 110.605 73.7423V74.5948H111.28V70.5662C111.28 69.2704 110.397 68.4769 109.047 68.4769C108.036 68.4769 107.232 68.9095 106.732 69.5975L107.255 70.0069C107.651 69.4456 108.267 69.1079 109.024 69.1079C109.943 69.1079 110.605 69.6207 110.605 70.5683V71.117L108.511 71.4673C107.279 71.6783 106.604 72.284 106.604 73.1725C106.604 74.1411 107.361 74.7594 108.5 74.7594V74.7573ZM107.302 73.1577C107.302 72.5731 107.733 72.1426 108.662 71.978L110.605 71.6509V72.9931C110.163 73.7528 109.43 74.1601 108.58 74.1601C107.789 74.1601 107.3 73.7275 107.3 73.1556L107.302 73.1577ZM113.776 72.7377C113.776 74.1749 114.543 74.7109 115.742 74.7109C116.114 74.7109 116.404 74.6645 116.674 74.5716V73.9406C116.44 74.0229 116.186 74.0694 115.814 74.0694C115.023 74.0694 114.476 73.8119 114.476 72.7377V69.3274H116.676V68.709H114.476V67.2381H113.778V68.709H112.672V69.3274H113.778V72.7377H113.776ZM123.272 73.6241L122.748 73.2041C122.317 73.8119 121.632 74.196 120.805 74.196C119.363 74.196 118.352 73.1091 118.352 71.615V71.4757H123.087C123.123 71.3364 123.133 71.1613 123.133 70.9861C123.133 69.5975 122.132 68.4748 120.561 68.4748C118.806 68.4748 117.641 69.8296 117.641 71.6509C117.641 73.3666 118.886 74.827 120.805 74.827C121.876 74.827 122.736 74.3606 123.272 73.6241ZM120.549 69.0826C121.689 69.0826 122.399 69.8993 122.433 70.927H118.419C118.64 69.7706 119.453 69.0826 120.547 69.0826H120.549ZM124.168 68.709V69.3274H125.274V74.5927H125.972V69.3274H128.171V68.709H125.972V67.9156C125.972 66.9933 126.495 66.4678 127.252 66.4678C127.625 66.4678 127.915 66.5734 128.171 66.7591L128.474 66.1745C128.194 65.9993 127.765 65.8368 127.229 65.8368C126.066 65.8368 125.274 66.6662 125.274 67.9261V68.709H124.168ZM131.689 68.4748C129.816 68.4748 128.548 69.9689 128.548 71.6509C128.548 73.3328 129.816 74.827 131.689 74.827C133.563 74.827 134.841 73.3328 134.841 71.6509C134.841 69.9689 133.573 68.4748 131.689 68.4748ZM131.702 74.1728C130.27 74.1728 129.258 72.9931 129.258 71.6509C129.258 70.3087 130.27 69.129 131.702 69.129C133.134 69.129 134.109 70.296 134.109 71.6509C134.109 73.0057 133.085 74.1728 131.702 74.1728ZM136.582 74.5927H137.268V70.3783C137.709 69.6418 138.233 69.2451 139.036 69.2451C139.246 69.2451 139.398 69.281 139.572 69.3274V68.6626C139.421 68.6162 139.246 68.593 139.084 68.593C138.294 68.593 137.747 68.9433 137.27 69.5511V68.7112H136.584V74.597L136.582 74.5927ZM141.126 74.5927H141.812V70.3657C142.207 69.6186 142.813 69.129 143.696 69.129C144.65 69.129 145.29 69.7473 145.29 70.8912V74.5927H145.975V70.8679C145.975 70.7054 145.963 70.5408 145.939 70.3889C146.427 69.5363 147.033 69.1269 147.847 69.1269C148.801 69.1269 149.453 69.7452 149.453 70.889V74.5906H150.128V70.8658C150.128 69.3126 149.22 68.4727 147.941 68.4727C146.93 68.4727 146.265 68.9623 145.765 69.7347C145.428 68.9053 144.695 68.4727 143.786 68.4727C142.878 68.4727 142.285 68.8694 141.808 69.4878V68.7048H141.122V74.5906L141.126 74.5927ZM157.389 73.6241L156.865 73.2041C156.434 73.8119 155.749 74.196 154.922 74.196C153.48 74.196 152.468 73.1091 152.468 71.615V71.4757H157.204C157.239 71.3364 157.25 71.1613 157.25 70.9861C157.25 69.5975 156.249 68.4748 154.678 68.4748C152.923 68.4748 151.758 69.8296 151.758 71.6509C151.758 73.3666 153.002 74.827 154.922 74.827C155.993 74.827 156.853 74.3606 157.389 73.6241ZM154.666 69.0826C155.805 69.0826 156.516 69.8993 156.55 70.927H152.536C152.756 69.7706 153.57 69.0826 154.664 69.0826H154.666ZM161.676 71.6509C161.676 73.3666 162.875 74.827 164.702 74.827C165.621 74.827 166.401 74.4408 166.948 73.7528V74.5927H167.633V65.8347H166.948V69.5469C166.401 68.8589 165.621 68.4727 164.702 68.4727C162.875 68.4727 161.676 69.9331 161.676 71.6488V71.6509ZM162.397 71.6509C162.397 70.2623 163.375 69.129 164.759 69.129C165.655 69.129 166.458 69.549 166.946 70.3551V72.9466C166.468 73.7401 165.665 74.1728 164.759 74.1728C163.375 74.1728 162.397 73.0395 162.397 71.6509ZM174.999 73.6241L174.476 73.2041C174.045 73.8119 173.359 74.196 172.533 74.196C171.09 74.196 170.079 73.1091 170.079 71.615V71.4757H174.814C174.85 71.3364 174.86 71.1613 174.86 70.9861C174.86 69.5975 173.859 68.4748 172.289 68.4748C170.533 68.4748 169.368 69.8296 169.368 71.6509C169.368 73.3666 170.613 74.827 172.533 74.827C173.603 74.827 174.463 74.3606 174.999 73.6241ZM172.276 69.0826C173.416 69.0826 174.127 69.8993 174.16 70.927H170.146C170.367 69.7706 171.181 69.0826 172.274 69.0826H172.276ZM179.833 74.5927H180.519V65.8347H179.833V74.5927ZM183.03 69.4076L184.136 66.4193H183.345L182.403 69.4076H183.032H183.03ZM186.352 66.8498C186.642 66.8498 186.875 66.6282 186.875 66.3243C186.875 66.0437 186.642 65.8115 186.352 65.8115C186.062 65.8115 185.816 66.0458 185.816 66.3243C185.816 66.6282 186.06 66.8498 186.352 66.8498ZM186.003 74.5906H186.688V68.7048H186.003V74.5906ZM188.991 74.5906H189.676V70.3636C190.13 69.6038 190.747 69.1269 191.678 69.1269C192.702 69.1269 193.388 69.7917 193.388 71.0072V74.5927H194.073V70.984C194.073 69.3611 193.108 68.4727 191.771 68.4727C190.852 68.4727 190.189 68.8694 189.676 69.511V68.7048H188.991V74.5906ZM198.867 74.1707C197.425 74.1707 196.413 73.0374 196.413 71.6488C196.413 70.2602 197.425 69.1269 198.857 69.1269C199.671 69.1269 200.346 69.5131 200.764 70.1082L201.311 69.6756C200.774 68.9517 199.914 68.4727 198.857 68.4727C196.96 68.4727 195.705 69.9331 195.705 71.6488C195.705 73.3645 196.962 74.8249 198.857 74.8249C199.914 74.8249 200.777 74.3458 201.311 73.622L200.764 73.1893C200.346 73.7845 199.681 74.1707 198.867 74.1707ZM202.852 74.5906H203.537V65.8326H202.852V74.5906ZM210.052 72.0919C210.052 73.4236 209.307 74.1707 208.224 74.1707C207.142 74.1707 206.387 73.4236 206.387 72.0919V68.7069H205.701V72.0814C205.701 73.833 206.713 74.8249 208.227 74.8249C209.741 74.8249 210.729 73.833 210.729 72.0814V68.7069H210.054V72.0919H210.052ZM212.186 73.8203C212.697 74.4745 213.418 74.8249 214.291 74.8249C215.361 74.8249 216.164 74.1242 216.164 73.1091C216.164 71.1233 213.151 71.5918 213.151 70.0618C213.151 69.5236 213.559 69.0699 214.291 69.0699C214.827 69.0699 215.302 69.3379 215.628 69.8296L216.139 69.4202C215.731 68.8589 215.069 68.4748 214.278 68.4748C213.195 68.4748 212.474 69.2113 212.474 70.0618C212.474 72.1405 215.487 71.6382 215.487 73.1324C215.487 73.7401 215.046 74.2297 214.278 74.2297C213.65 74.2297 213.139 73.9617 212.697 73.4004L212.186 73.8203ZM218.288 66.8498C218.578 66.8498 218.812 66.6282 218.812 66.3243C218.812 66.0437 218.578 65.8115 218.288 65.8115C217.998 65.8115 217.754 66.0458 217.754 66.3243C217.754 66.6282 217.998 66.8498 218.288 66.8498ZM217.939 74.5906H218.625V68.7048H217.939V74.5906ZM223.522 68.4727C221.648 68.4727 220.38 69.9668 220.38 71.6488C220.38 73.3307 221.648 74.8249 223.522 74.8249C225.395 74.8249 226.674 73.3307 226.674 71.6488C226.674 69.9668 225.406 68.4727 223.522 68.4727ZM223.534 74.1707C222.102 74.1707 221.091 72.991 221.091 71.6488C221.091 70.3066 222.102 69.1269 223.534 69.1269C224.966 69.1269 225.942 70.2939 225.942 71.6488C225.942 73.0036 224.918 74.1707 223.534 74.1707ZM228.415 74.5906H229.1V70.3636C229.555 69.6038 230.171 69.1269 231.102 69.1269C232.126 69.1269 232.812 69.7917 232.812 71.0072V74.5927H233.497V70.984C233.497 69.3611 232.532 68.4727 231.195 68.4727C230.276 68.4727 229.613 68.8694 229.1 69.511V68.7048H228.415V74.5906Z" fill="black" />
<path d="M23.5716 39.7106C28.7633 39.7106 32.6575 41.593 35.6855 44.8493V23.3574H43.2574V77.6316H35.6855V73.9406C32.6575 77.1969 28.7633 79.0794 23.5716 79.0794C12.1075 79.0794 4.96875 70.0344 4.96875 59.396C4.96875 48.7577 12.1075 39.7127 23.5716 39.7127V39.7106ZM24.5095 72.0582C29.1964 72.0582 33.2337 69.8149 35.6855 65.9804V52.8096C33.0171 48.8295 29.0514 46.7318 24.5095 46.7318C17.5158 46.7318 12.8288 52.2314 12.8288 59.396C12.8288 66.5607 17.5158 72.0603 24.5095 72.0603V72.0582Z" fill="#020096" />
<path d="M71.623 27.9877C71.623 25.2379 73.9297 22.9229 76.6696 22.9229C79.4095 22.9229 81.7162 25.2379 81.7162 27.9877C81.7162 30.7375 79.4095 33.0526 76.6696 33.0526C73.9297 33.0526 71.623 30.7375 71.623 27.9877ZM72.9204 41.1585H80.3473V77.6318H72.9204V41.1585Z" fill="#020096" />
<path d="M52.3926 54.9623C52.3926 52.2125 54.6993 49.8975 57.4391 49.8975C60.179 49.8975 62.4857 52.2125 62.4857 54.9623C62.4857 57.7121 60.179 60.0272 57.4391 60.0272C54.6993 60.0272 52.3926 57.7121 52.3926 54.9623Z" fill="#DF0110" />
<path d="M102.829 38.6385C104.633 38.6385 105.932 39.1978 106.967 40.2361V32.624H110.361V52.588H106.967V51.5244C105.932 52.5627 104.633 53.1219 102.829 53.1219C98.6128 53.1219 96.0391 49.7939 96.0391 45.8813C96.0391 41.9687 98.6107 38.6407 102.829 38.6407V38.6385ZM103.306 49.9248C104.818 49.9248 106.065 49.2853 106.967 48.0613V43.695C106.065 42.471 104.818 41.8315 103.306 41.8315C101.025 41.8315 99.5674 43.5346 99.5674 45.8771C99.5674 48.2196 101.027 49.9226 103.306 49.9226V49.9248Z" fill="black" />
<path d="M113.648 48.9668C113.648 46.9429 115.213 45.4256 118.077 44.9465L122.16 44.2543V43.9082C122.16 42.4985 121.101 41.5932 119.561 41.5932C118.262 41.5932 117.255 42.2052 116.538 43.1907L114.071 41.2998C115.265 39.6495 117.227 38.6387 119.666 38.6387C123.538 38.6387 125.529 40.9537 125.529 43.9082V52.586H122.16V51.2818C121.311 52.3201 119.721 52.9849 118.157 52.9849C115.478 52.9849 113.648 51.4401 113.648 48.9647V48.9668ZM118.846 50.2984C120.386 50.2984 121.498 49.5788 122.162 48.5152V46.6243L118.981 47.1561C117.574 47.3967 116.992 47.9812 116.992 48.8064C116.992 49.7117 117.709 50.2963 118.849 50.2963L118.846 50.2984Z" fill="black" />
<path d="M130.224 42.2054H127.73V39.1707H130.224V35.8174H133.618V39.1707H137.702V42.2054H133.618V47.6882C133.618 49.1781 134.413 49.7647 135.74 49.7647C136.667 49.7647 137.277 49.6592 137.729 49.4714V52.4259C137.067 52.7193 136.27 52.8522 135.157 52.8522C131.816 52.8522 130.224 50.9613 130.224 47.6882V42.2054Z" fill="black" />
<path d="M139.984 48.9668C139.984 46.9429 141.549 45.4256 144.413 44.9465L148.496 44.2543V43.9082C148.496 42.4985 147.436 41.5932 145.897 41.5932C144.598 41.5932 143.591 42.2052 142.874 43.1907L140.407 41.2998C141.601 39.6495 143.563 38.6387 146.002 38.6387C149.874 38.6387 151.865 40.9537 151.865 43.9082V52.586H148.496V51.2818C147.647 52.3201 146.057 52.9849 144.493 52.9849C141.814 52.9849 139.984 51.4401 139.984 48.9647V48.9668ZM145.182 50.2984C146.719 50.2984 147.834 49.5788 148.498 48.5152V46.6243L145.317 47.1561C143.91 47.3967 143.328 47.9812 143.328 48.8064C143.328 49.7117 144.045 50.2963 145.184 50.2963L145.182 50.2984Z" fill="black" />
<path d="M154.969 45.8268C154.969 44.5753 156.003 43.5117 157.303 43.5117C158.602 43.5117 159.637 44.5775 159.637 45.8268C159.637 47.0761 158.55 48.1418 157.303 48.1418C156.056 48.1418 154.969 47.1036 154.969 45.8268Z" fill="black" />
<path d="M162.369 34.6207C162.369 33.422 163.376 32.4111 164.571 32.4111C165.765 32.4111 166.745 33.422 166.745 34.6207C166.745 35.8194 165.763 36.8302 164.571 36.8302C163.378 36.8302 162.369 35.8194 162.369 34.6207ZM162.874 39.1727H166.242V52.5883H162.874V39.1727Z" fill="black" />
<path d="M170.273 39.1705H173.642V40.2362C174.569 39.3309 175.816 38.6387 177.593 38.6387C180.484 38.6387 182.791 40.6351 182.791 44.6004V52.586H179.397V44.7334C179.397 42.9501 178.39 41.8316 176.746 41.8316C175.101 41.8316 174.147 42.9755 173.642 43.828V52.586H170.273V39.1705Z" fill="black" />
<path d="M196.05 48.382L198.677 50.4059C197.43 52.0562 195.468 53.1219 193.026 53.1219C188.411 53.1219 185.654 49.7939 185.654 45.8813C185.654 41.9687 188.413 38.6406 193.026 38.6406C195.466 38.6406 197.43 39.7064 198.677 41.3567L196.05 43.3805C195.413 42.4498 194.353 41.8357 192.974 41.8357C190.772 41.8357 189.155 43.5388 189.155 45.8813C189.155 48.2238 190.772 49.9268 193.026 49.9268C194.353 49.9268 195.413 49.3148 196.05 48.382Z" fill="black" />
<path d="M201.195 32.624H204.564V52.588H201.195V32.624Z" fill="black" />
<path d="M217.401 39.1699H220.795V46.6237C220.795 50.6439 218.461 53.1194 214.535 53.1194C210.609 53.1194 208.303 50.6439 208.303 46.6237V39.1699H211.697V46.782C211.697 48.7256 212.704 49.9222 214.56 49.9222C216.417 49.9222 217.399 48.7235 217.399 46.782V39.1699H217.401Z" fill="black" />
<path d="M225.489 48.6207C226.311 49.659 227.293 50.4039 228.565 50.4039C229.652 50.4039 230.209 49.7645 230.209 48.9668C230.209 46.6243 223.817 47.5022 223.817 42.7919C223.817 40.4219 225.806 38.6387 228.59 38.6387C230.632 38.6387 232.489 39.6242 233.443 40.9284L231.215 42.8974C230.525 42.0448 229.65 41.3526 228.616 41.3526C227.581 41.3526 227.051 41.9372 227.051 42.6294C227.051 44.9191 233.443 44.1193 233.443 48.7515C233.391 51.5731 231.137 53.1178 228.616 53.1178C226.229 53.1178 224.532 52.1597 223.258 50.6424L225.485 48.6186L225.489 48.6207Z" fill="black" />
<path d="M236.045 34.6207C236.045 33.422 237.052 32.4111 238.246 32.4111C239.441 32.4111 240.421 33.422 240.421 34.6207C240.421 35.8194 239.439 36.8302 238.246 36.8302C237.054 36.8302 236.045 35.8194 236.045 34.6207ZM236.55 39.1727H239.918V52.5883H236.55V39.1727Z" fill="black" />
<path d="M257.633 45.8793C257.633 49.8995 254.662 53.12 250.314 53.12C245.965 53.12 242.994 49.8995 242.994 45.8793C242.994 41.8591 245.965 38.6387 250.314 38.6387C254.662 38.6387 257.633 41.8591 257.633 45.8793ZM254.132 45.8793C254.132 43.5368 252.513 41.8338 250.366 41.8338C248.219 41.8338 246.493 43.5368 246.493 45.8793C246.493 48.2218 248.137 49.9249 250.366 49.9249C252.595 49.9249 254.132 48.1944 254.132 45.8793Z" fill="black" />
<path d="M260.709 39.1705H264.078V40.2362C265.005 39.3309 266.252 38.6387 268.029 38.6387C270.92 38.6387 273.227 40.6351 273.227 44.6004V52.586H269.833V44.7334C269.833 42.9501 268.826 41.8316 267.181 41.8316C265.537 41.8316 264.582 42.9755 264.078 43.828V52.586H260.709V39.1705Z" fill="black" />
</svg>